<?xml version="1.0" standalone="no"?>
<!DOCTYPE svg PUBLIC "-//W3C//DTD SVG 20010904//EN"
 "http://www.w3.org/TR/2001/REC-SVG-20010904/DTD/svg10.dtd">
<svg version="1.0" xmlns="http://www.w3.org/2000/svg"
 width="192.000000pt" height="192.000000pt" viewBox="0 0 192.000000 192.000000"
 preserveAspectRatio="xMidYMid meet">
<metadata>
Created by potrace 1.11, written by Peter Selinger 2001-2013
</metadata>
<g transform="translate(0.000000,192.000000) scale(0.100000,-0.100000)"
fill="#000000" stroke="none">
<path d="M273 1705 c-18 -8 -42 -29 -53 -47 -19 -32 -20 -49 -20 -696 0 -728
-1 -709 59 -745 27 -16 86 -17 705 -17 l676 0 38 34 37 34 3 679 c2 666 2 679
-18 711 -39 63 -22 62 -742 62 -538 -1 -659 -3 -685 -15z m426 -427 l162 -93
15 -53 c13 -44 14 -62 4 -102 -6 -26 -19 -55 -28 -63 -9 -8 -69 -45 -132 -82
-63 -37 -137 -81 -164 -97 -43 -25 -52 -27 -81 -18 -52 17 -78 53 -78 105 0
61 29 90 149 151 52 26 94 50 94 53 0 3 -57 35 -126 70 l-126 63 4 54 c6 74
34 104 98 104 40 0 68 -12 209 -92z m820 -579 c18 -52 13 -95 -13 -126 l-24
-28 -266 -3 -267 -3 -14 35 c-27 65 -12 132 35 149 8 3 133 6 277 6 l261 1 11
-31z"/>
</g>
</svg>
